<?xml version="1.0" encoding="UTF-8" standalone="no"?>
<!-- Created with Inkscape (http://www.inkscape.org/) -->

<svg
   width="210mm"
   height="297mm"
   viewBox="0 0 210 297"
   version="1.1"
   id="svg1"
   inkscape:version="1.3.2 (091e20e, 2023-11-25, custom)"
   sodipodi:docname="galatac-logo-canonical.svg"
   inkscape:export-filename="galatac-logo-transparent-medium.png"
   inkscape:export-xdpi="50.085213"
   inkscape:export-ydpi="50.085213"
   xmlns:inkscape="http://www.inkscape.org/namespaces/inkscape"
   xmlns:sodipodi="http://sodipodi.sourceforge.net/DTD/sodipodi-0.dtd"
   xmlns="http://www.w3.org/2000/svg"
   xmlns:svg="http://www.w3.org/2000/svg">
  <sodipodi:namedview
     id="namedview1"
     pagecolor="#ffffff"
     bordercolor="#666666"
     borderopacity="1.0"
     inkscape:showpageshadow="2"
     inkscape:pageopacity="0.0"
     inkscape:pagecheckerboard="0"
     inkscape:deskcolor="#d1d1d1"
     inkscape:document-units="mm"
     inkscape:zoom="0.37323245"
     inkscape:cx="755.56132"
     inkscape:cy="459.49917"
     inkscape:window-width="2560"
     inkscape:window-height="1377"
     inkscape:window-x="-8"
     inkscape:window-y="-8"
     inkscape:window-maximized="1"
     inkscape:current-layer="layer3" />
  <defs
     id="defs1" />
  <g
     inkscape:label="circle"
     inkscape:groupmode="layer"
     id="layer1"
     style="display:none"
     sodipodi:insensitive="true">
    <circle
       style="fill:#010033;fill-opacity:1;stroke-width:8.07777"
       id="path1"
       cx="448.99924"
       cy="149.39749"
       r="113.39656" />
  </g>
  <g
     inkscape:groupmode="layer"
     id="layer2"
     inkscape:label="center square">
    <rect
       style="fill:#d4a64a;fill-opacity:1;stroke-width:5.98183"
       id="rect1"
       width="28.369204"
       height="28.784468"
       x="449.73526"
       y="-9.1002474"
       ry="2.1038377e-13"
       transform="matrix(0.95006322,0.3120575,-0.33426043,0.94248075,0,0)" />
    <rect
       style="fill:#d4a64a;fill-opacity:1;stroke-width:5.98183"
       id="rect1-1"
       width="28.369204"
       height="28.784468"
       x="449.71664"
       y="63.07996"
       ry="2.1038377e-13"
       transform="matrix(0.95006322,0.3120575,-0.33426043,0.94248075,0,0)" />
    <rect
       style="fill:#d4a64a;fill-opacity:1;stroke-width:5.98182"
       id="rect1-3"
       width="28.364286"
       height="28.789316"
       x="523.59906"
       y="-12.924677"
       ry="2.1041919e-13"
       transform="matrix(0.94771981,0.31910368,-0.34104742,0.94004609,0,0)" />
    <rect
       style="fill:#d4a64a;fill-opacity:1;stroke-width:5.98183"
       id="rect1-8"
       width="28.369204"
       height="28.784468"
       x="449.59781"
       y="-77.545265"
       ry="2.1038377e-13"
       transform="matrix(0.94849366,0.31679611,-0.33896093,0.94080045,0,0)" />
    <rect
       style="fill:#d4a64a;fill-opacity:1;stroke-width:5.98183"
       id="rect1-6"
       width="28.369204"
       height="28.784468"
       x="387.80728"
       y="-9.0424471"
       ry="2.1038377e-13"
       transform="matrix(0.95006322,0.3120575,-0.33426043,0.94248075,0,0)" />
  </g>
  <g
     inkscape:groupmode="layer"
     id="layer3"
     inkscape:label="arms">
    <rect
       style="fill:#d4a64a;fill-opacity:1;stroke-width:4.97975"
       id="rect2"
       width="4.5606084"
       height="74.62191"
       x="-17.913288"
       y="477.32861"
       ry="2.0733061e-13"
       transform="matrix(0.33765642,-0.94126943,0.94889815,0.31558248,0,0)" />
    <rect
       style="fill:#d4a64a;fill-opacity:1;stroke-width:4.97975"
       id="rect2-5"
       width="4.5606084"
       height="74.62191"
       x="6.4181323"
       y="523.68768"
       ry="2.0733061e-13"
       transform="matrix(0.33765642,-0.94126943,0.94889815,0.31558248,0,0)" />
    <rect
       style="fill:#d4a64a;fill-opacity:1;stroke-width:4.97976"
       id="rect2-1"
       width="4.560143"
       height="74.629753"
       x="4.1818604"
       y="387.82111"
       ry="2.0735242e-13"
       transform="matrix(0.33355163,-0.94273183,0.9503045,0.31132195,0,0)" />
    <rect
       style="fill:#d4a64a;fill-opacity:1;stroke-width:4.97976"
       id="rect2-1-14"
       width="4.560143"
       height="74.629753"
       x="-20.063959"
       y="341.5394"
       ry="2.0735242e-13"
       transform="matrix(0.33355163,-0.94273183,0.9503045,0.31132195,0,0)" />
    <rect
       style="fill:#d4a64a;fill-opacity:1;stroke-width:4.97975"
       id="rect2-1-1"
       width="4.4940066"
       height="75.727791"
       x="-478.05786"
       y="1.3739276"
       ry="2.1040321e-13"
       transform="matrix(-0.94878587,-0.31591989,0.33798144,-0.94115277,0,0)" />
    <rect
       style="fill:#d4a64a;fill-opacity:1;stroke-width:4.97976"
       id="rect2-1-1-6"
       width="4.4948645"
       height="75.71376"
       x="-454.60614"
       y="44.67728"
       ry="2.1036424e-13"
       transform="matrix(-0.95132273,-0.30819645,0.3305391,-0.9437923,0,0)" />
    <rect
       style="fill:#d4a64a;fill-opacity:1;stroke-width:4.97976"
       id="rect2-1-1-5"
       width="4.4944081"
       height="75.721222"
       x="-454.23129"
       y="-91.751465"
       ry="2.1038497e-13"
       transform="matrix(-0.94998437,-0.31229746,0.33449166,-0.94239871,0,0)" />
    <rect
       style="fill:#d4a64a;fill-opacity:1;stroke-width:4.97976"
       id="rect2-1-1-5-3"
       width="4.4944081"
       height="75.721222"
       x="-478.09888"
       y="-138.68085"
       ry="2.1038497e-13"
       transform="matrix(-0.94998437,-0.31229746,0.33449166,-0.94239871,0,0)" />
  </g>
</svg>
