<?xml version="1.0" encoding="UTF-8"?>
<svg xmlns="http://www.w3.org/2000/svg" viewBox="301.912 9.804 285.492 285.492">
  <rect x="449.73526" y="-9.1002474" width="28.369204" height="28.784468" fill="#d4a64a" transform="matrix(0.95006322,0.3120575,-0.33426043,0.94248075,0,0)"/>
  <rect x="449.71664" y="63.07996" width="28.369204" height="28.784468" fill="#d4a64a" transform="matrix(0.95006322,0.3120575,-0.33426043,0.94248075,0,0)"/>
  <rect x="523.59906" y="-12.924677" width="28.364286" height="28.789316" fill="#d4a64a" transform="matrix(0.94771981,0.31910368,-0.34104742,0.94004609,0,0)"/>
  <rect x="449.59781" y="-77.545265" width="28.369204" height="28.784468" fill="#d4a64a" transform="matrix(0.94849366,0.31679611,-0.33896093,0.94080045,0,0)"/>
  <rect x="387.80728" y="-9.0424471" width="28.369204" height="28.784468" fill="#d4a64a" transform="matrix(0.95006322,0.3120575,-0.33426043,0.94248075,0,0)"/>
  <rect x="-17.913288" y="477.32861" width="4.5606084" height="74.62191" fill="#d4a64a" transform="matrix(0.33765642,-0.94126943,0.94889815,0.31558248,0,0)"/>
  <rect x="6.4181323" y="523.68768" width="4.5606084" height="74.62191" fill="#d4a64a" transform="matrix(0.33765642,-0.94126943,0.94889815,0.31558248,0,0)"/>
  <rect x="4.1818604" y="387.82111" width="4.560143" height="74.629753" fill="#d4a64a" transform="matrix(0.33355163,-0.94273183,0.9503045,0.31132195,0,0)"/>
  <rect x="-20.063959" y="341.5394" width="4.560143" height="74.629753" fill="#d4a64a" transform="matrix(0.33355163,-0.94273183,0.9503045,0.31132195,0,0)"/>
  <rect x="-478.05786" y="1.3739276" width="4.4940066" height="75.727791" fill="#d4a64a" transform="matrix(-0.94878587,-0.31591989,0.33798144,-0.94115277,0,0)"/>
  <rect x="-454.60614" y="44.67728" width="4.4948645" height="75.71376" fill="#d4a64a" transform="matrix(-0.95132273,-0.30819645,0.3305391,-0.9437923,0,0)"/>
  <rect x="-454.23129" y="-91.751465" width="4.4944081" height="75.721222" fill="#d4a64a" transform="matrix(-0.94998437,-0.31229746,0.33449166,-0.94239871,0,0)"/>
  <rect x="-478.09888" y="-138.68085" width="4.4944081" height="75.721222" fill="#d4a64a" transform="matrix(-0.94998437,-0.31229746,0.33449166,-0.94239871,0,0)"/>
</svg>
